<svg width="104" height="41" viewBox="0 0 104 41" fill="none" xmlns="http://www.w3.org/2000/svg">
<path d="M1.51995 40C1.11665 40 0.78655 39.8717 0.52985 39.615C0.30985 39.3583 0.199951 39.0467 0.199951 38.68V35.545C0.199951 35.215 0.273149 34.9033 0.419849 34.61C0.603149 34.28 0.786652 34.005 0.969952 33.785L15.0498 17.12H1.95985C1.59315 17.12 1.28165 17.01 1.02495 16.79C0.768252 16.5333 0.639851 16.2033 0.639851 15.8V12.72C0.639851 12.3533 0.768252 12.0417 1.02495 11.785C1.28165 11.5283 1.59315 11.4 1.95985 11.4H22.805C23.2083 11.4 23.5198 11.5283 23.7398 11.785C23.9965 12.0417 24.125 12.3533 24.125 12.72V16.075C24.125 16.405 24.0515 16.6983 23.9049 16.955C23.7582 17.2117 23.575 17.4867 23.355 17.78L9.60485 34.28H23.9599C24.3265 34.28 24.6381 34.4083 24.8948 34.665C25.1515 34.885 25.2799 35.1967 25.2799 35.6V38.68C25.2799 39.0467 25.1515 39.3583 24.8948 39.615C24.6381 39.8717 24.3265 40 23.9599 40H1.51995ZM39.1538 40.55C37.2471 40.55 35.5238 40.1833 33.9838 39.45C32.4438 38.68 31.2152 37.6717 30.2986 36.425C29.4186 35.1417 28.9786 33.7117 28.9786 32.135C28.9786 29.5683 30.0054 27.5333 32.0588 26.03C34.1488 24.49 36.8988 23.4633 40.3088 22.95L47.8438 21.85V20.695C47.8438 19.155 47.4586 17.9633 46.6886 17.12C45.9186 16.2767 44.5986 15.855 42.7286 15.855C41.4086 15.855 40.3271 16.13 39.4838 16.68C38.6771 17.1933 38.0721 17.89 37.6688 18.77C37.3754 19.2467 36.9538 19.485 36.4038 19.485H32.0588C31.6553 19.485 31.3438 19.375 31.1238 19.155C30.9404 18.935 30.8487 18.6417 30.8487 18.275C30.8854 17.6883 31.1236 16.9733 31.5636 16.13C32.0036 15.2867 32.7004 14.48 33.6538 13.71C34.6071 12.9033 35.8353 12.225 37.3386 11.675C38.8419 11.125 40.6569 10.85 42.7836 10.85C45.0937 10.85 47.0371 11.1433 48.6138 11.73C50.227 12.28 51.5099 13.0317 52.4639 13.985C53.4169 14.9383 54.114 16.0567 54.554 17.34C54.9939 18.6233 55.2139 19.98 55.2139 21.41V38.68C55.2139 39.0467 55.085 39.3583 54.829 39.615C54.572 39.8717 54.2599 40 53.8939 40H49.439C49.035 40 48.7052 39.8717 48.4487 39.615C48.2286 39.3583 48.1186 39.0467 48.1186 38.68V36.535C47.6419 37.2317 47.0004 37.8917 46.1938 38.515C45.3871 39.1017 44.3971 39.5967 43.2238 40C42.0871 40.3667 40.7304 40.55 39.1538 40.55ZM41.0238 35.325C42.3071 35.325 43.4621 35.05 44.4888 34.5C45.5521 33.95 46.3769 33.1067 46.9636 31.97C47.5869 30.7967 47.8988 29.33 47.8988 27.57V26.415L42.3988 27.295C40.2354 27.625 38.6221 28.1567 37.5588 28.89C36.4953 29.6233 35.9636 30.5217 35.9636 31.585C35.9636 32.3917 36.2021 33.0883 36.6788 33.675C37.1921 34.225 37.8336 34.6467 38.6036 34.94C39.3736 35.1967 40.1804 35.325 41.0238 35.325ZM63.5899 40C63.2229 40 62.9109 39.8717 62.6549 39.615C62.3979 39.3583 62.2699 39.0467 62.2699 38.68V12.775C62.2699 12.3717 62.3979 12.0417 62.6549 11.785C62.9109 11.5283 63.2229 11.4 63.5899 11.4H68.045C68.4109 11.4 68.7229 11.5283 68.9799 11.785C69.2729 12.0417 69.42 12.3717 69.42 12.775V15.03C70.263 13.8567 71.3449 12.9583 72.6649 12.335C74.021 11.7117 75.5799 11.4 77.34 11.4H79.595C79.998 11.4 80.31 11.5283 80.53 11.785C80.7859 12.0417 80.9149 12.3533 80.9149 12.72V16.68C80.9149 17.0467 80.7859 17.3583 80.53 17.615C80.31 17.8717 79.998 18 79.595 18H75.3049C73.5449 18 72.1699 18.495 71.1799 19.485C70.2259 20.475 69.75 21.8317 69.75 23.555V38.68C69.75 39.0467 69.6209 39.3583 69.3649 39.615C69.1079 39.8717 68.778 40 68.375 40H63.5899ZM98.129 40C95.929 40 94.078 39.615 92.574 38.845C91.071 38.075 89.9529 36.9383 89.2189 35.435C88.4859 33.895 88.119 31.9883 88.119 29.715V17.23H83.774C83.408 17.23 83.096 17.1017 82.839 16.845C82.583 16.5883 82.4539 16.2767 82.4539 15.91V12.72C82.4539 12.3533 82.583 12.0417 82.839 11.785C83.096 11.5283 83.408 11.4 83.774 11.4H88.119V2.27C88.119 1.9033 88.229 1.5917 88.449 1.335C88.706 1.0783 89.0359 0.949997 89.4389 0.949997H93.894C94.2609 0.949997 94.573 1.0783 94.8289 1.335C95.086 1.5917 95.214 1.9033 95.214 2.27V11.4H102.089C102.456 11.4 102.768 11.5283 103.024 11.785C103.281 12.0417 103.409 12.3533 103.409 12.72V15.91C103.409 16.2767 103.281 16.5883 103.024 16.845C102.768 17.1017 102.456 17.23 102.089 17.23H95.214V29.165C95.214 30.6683 95.4709 31.8417 95.9839 32.685C96.534 33.5283 97.469 33.95 98.789 33.95H102.584C102.951 33.95 103.263 34.0783 103.519 34.335C103.776 34.5917 103.904 34.9033 103.904 35.27V38.68C103.904 39.0467 103.776 39.3583 103.519 39.615C103.263 39.8717 102.951 40 102.584 40H98.129Z" fill="#333333"/>
</svg>
