<svg width="44" height="45" viewBox="0 0 44 45" fill="none" xmlns="http://www.w3.org/2000/svg">
<path d="M22 45C17.8373 45 14.0831 44.0417 10.7374 42.125C7.3917 40.1667 4.7657 37.4792 2.85942 34.0625C0.95314 30.6042 0 26.75 0 22.5C0 18.25 0.95314 14.4167 2.85942 11C4.7657 7.5417 7.3917 4.8542 10.7374 2.9375C14.0831 0.9792 17.8373 0 22 0C26.1627 0 29.9169 0.9792 33.2626 2.9375C36.6083 4.8542 39.2343 7.5208 41.1406 10.9375C43.0469 14.3542 44 18.2083 44 22.5C44 26.7917 43.0469 30.6458 41.1406 34.0625C39.2343 37.4792 36.6083 40.1667 33.2626 42.125C29.9169 44.0417 26.1627 45 22 45ZM22 37.875C24.7233 37.875 27.1742 37.2292 29.3528 35.9375C31.5314 34.6042 33.2432 32.7708 34.4881 30.4375C35.7329 28.0625 36.3554 25.4167 36.3554 22.5C36.3554 19.5833 35.7329 16.9583 34.4881 14.625C33.2432 12.25 31.5314 10.4167 29.3528 9.125C27.1742 7.7917 24.7233 7.125 22 7.125C19.2767 7.125 16.8258 7.7917 14.6472 9.125C12.4686 10.4167 10.7568 12.25 9.5119 14.625C8.2671 16.9583 7.6446 19.5833 7.6446 22.5C7.6446 25.4167 8.2671 28.0625 9.5119 30.4375C10.7568 32.7708 12.4686 34.6042 14.6472 35.9375C16.8258 37.2292 19.2767 37.875 22 37.875Z" fill="#333333"/>
</svg>
