<svg width="62" height="8" viewBox="0 0 62 8" fill="none" xmlns="http://www.w3.org/2000/svg">
<path d="M0.646446 3.64645C0.451185 3.84171 0.451185 4.15829 0.646446 4.35356L3.82843 7.53554C4.02369 7.7308 4.34027 7.7308 4.53553 7.53554C4.7308 7.34027 4.7308 7.02369 4.53553 6.82843L1.70711 4L4.53553 1.17157C4.7308 0.976313 4.7308 0.65973 4.53553 0.464468C4.34027 0.269206 4.02369 0.269206 3.82843 0.464468L0.646446 3.64645ZM25 3.5L1 3.5L1 4.5L25 4.5L25 3.5Z" fill="#333333"/>
<path d="M61.3536 4.35355C61.5488 4.15829 61.5488 3.84171 61.3536 3.64645L58.1716 0.464466C57.9763 0.269204 57.6597 0.269204 57.4645 0.464466C57.2692 0.659728 57.2692 0.976311 57.4645 1.17157L60.2929 4L57.4645 6.82843C57.2692 7.02369 57.2692 7.34027 57.4645 7.53553C57.6597 7.7308 57.9763 7.7308 58.1716 7.53553L61.3536 4.35355ZM37 4.5H61V3.5H37V4.5Z" fill="#333333"/>
</svg>
